<svg width="85" height="30" viewBox="0 0 85 30" fill="none" xmlns="http://www.w3.org/2000/svg">
<g clip-path="url(#clip0)">
<path d="M25.4368 20.378V9.18945H30.5091C31.8217 9.18945 32.8196 9.56047 33.5028 10.3025C34.1006 10.9399 34.3994 11.7649 34.3994 12.7777C34.3994 13.7904 34.1006 14.6155 33.5028 15.2528C32.8201 15.9949 31.8222 16.3659 30.5091 16.3659H27.9096V20.3764L25.4368 20.378ZM27.9096 11.1023V14.4538H29.8326C30.5034 14.4538 31.007 14.3553 31.3434 14.1584C31.7851 13.8866 32.006 13.4266 32.006 12.7784C32.006 12.1303 31.7851 11.6703 31.3434 11.3985C31.0075 11.2021 30.5036 11.1023 29.8326 11.1023H27.9096Z" fill="white"/>
<path d="M35.3458 20.3782V12.2766H37.4725V13.7826H37.5036C37.7113 13.272 38.075 12.8391 38.5433 12.545C39.0031 12.2326 39.5462 12.0638 40.1031 12.0601C40.2692 12.06 40.4343 12.0861 40.5922 12.1374V14.2057C40.3277 14.15 40.0578 14.124 39.7874 14.1284C38.3178 14.1284 37.5827 14.9949 37.5822 16.7281V20.3797L35.3458 20.3782Z" fill="white"/>
<path d="M41.1426 16.3359C41.1426 15.0411 41.5262 14.0041 42.2935 13.2249C43.0607 12.4457 44.0793 12.0569 45.3494 12.0585C46.6309 12.0585 47.655 12.4473 48.4217 13.2249C49.1884 14.0025 49.5715 15.0395 49.571 16.3359C49.571 17.6214 49.1879 18.6527 48.4217 19.4298C47.6555 20.2069 46.6314 20.596 45.3494 20.597C44.0778 20.597 43.0591 20.2082 42.2935 19.4306C41.5278 18.653 41.1442 17.6214 41.1426 16.3359ZM43.3798 16.3359C43.3798 17.0774 43.5215 17.6676 43.8051 18.1064C44.1416 18.6494 44.6563 18.9209 45.3494 18.9209C46.6719 18.9209 47.3333 18.0592 47.3338 16.3359C47.3338 14.6017 46.6724 13.7344 45.3494 13.7339C44.0368 13.7339 43.3803 14.6012 43.3798 16.3359Z" fill="white"/>
<path d="M50.7367 20.378V9.18945H55.5881C57.1107 9.18945 58.3237 9.64942 59.2273 10.5694C60.2039 11.5393 60.6925 12.9231 60.693 14.7207C60.693 16.4131 60.2729 17.7605 59.4326 18.7629C58.529 19.8396 57.2475 20.378 55.5881 20.378H50.7367ZM53.2095 11.2578V18.3097H55.4147C56.2131 18.3097 56.859 18.0591 57.3525 17.5578C57.931 16.9736 58.22 16.1063 58.2195 14.9558C58.2195 13.7554 57.9883 12.8573 57.5259 12.2618C57.0002 11.5914 56.1495 11.2562 54.9738 11.2562L53.2095 11.2578Z" fill="white"/>
<path d="M69.3741 16.8697H63.4978C63.5605 18.2372 64.2272 18.921 65.4978 18.921C65.9126 18.9263 66.3193 18.8063 66.6642 18.5768C66.99 18.378 67.1883 18.1429 67.2629 17.8714H69.2318C68.633 19.6896 67.363 20.5982 65.4216 20.5971C64.1504 20.5971 63.1396 20.2034 62.3889 19.416C61.6383 18.6286 61.2622 17.6019 61.2606 16.336C61.2606 15.1041 61.6466 14.0831 62.4185 13.273C63.1904 12.4629 64.1909 12.0581 65.42 12.0586C66.743 12.0586 67.7668 12.5485 68.4915 13.5282C69.1634 14.4296 69.4575 15.5434 69.3741 16.8697ZM63.4978 15.4581H67.1362C66.9262 14.3087 66.3329 13.734 65.3562 13.734C64.7264 13.734 64.2432 13.9433 63.9068 14.362C63.655 14.6739 63.5116 15.0584 63.4978 15.4581Z" fill="white"/>
<path d="M77.4386 12.2767L74.682 20.3783H72.1937L69.4044 12.2767H71.7512L73.4689 17.808H73.5008L75.2178 12.2767H77.4386Z" fill="white"/>
<path d="M77.4549 17.7453H79.5817C79.592 18.2058 79.7706 18.5557 80.1174 18.7949C80.4217 19.0058 80.8154 19.111 81.2986 19.1105C81.6381 19.1213 81.9747 19.0451 82.276 18.8893C82.6003 18.7029 82.7636 18.4314 82.7636 18.0748C82.7636 17.7654 82.5427 17.5102 82.1018 17.323C81.7867 17.1879 81.1617 17.0205 80.2271 16.821C79.4292 16.6539 78.8359 16.4347 78.4471 16.1635C77.9122 15.8077 77.6439 15.308 77.6439 14.6583C77.6439 12.9241 78.8253 12.0576 81.1882 12.0586C83.4354 12.0586 84.6327 12.9203 84.7799 14.6436H82.6539C82.6003 13.9111 82.0917 13.5476 81.1252 13.5476C80.2958 13.5476 79.881 13.7979 79.881 14.2986C79.881 14.6436 80.1436 14.9097 80.6687 15.0969C80.7325 15.1185 81.3157 15.2544 82.4183 15.5045C83.226 15.6932 83.819 15.9235 84.1975 16.1952C84.734 16.5711 85.0018 17.0981 85.0007 17.7762C85.0007 18.7586 84.6119 19.4952 83.8343 19.9861C83.1931 20.393 82.3421 20.5966 81.2815 20.5972C80.2208 20.5977 79.3598 20.3891 78.6983 19.9714C77.9119 19.481 77.4974 18.739 77.4549 17.7453Z" fill="white"/>
<path d="M14.4143 15.9428C14.4137 16.0241 14.4312 16.1045 14.4657 16.1781C14.5002 16.2518 14.5507 16.3169 14.6136 16.3687C14.6765 16.4206 14.7502 16.4578 14.8294 16.4778C14.9086 16.4978 14.9912 16.5 15.0714 16.4843C16.8832 16.1223 21.7766 14.6998 21.2019 9.93514C20.8271 7.16373 16.5916 6.55422 15.0076 6.41963C14.9317 6.41351 14.8553 6.42318 14.7833 6.44801C14.7114 6.47285 14.6454 6.51231 14.5896 6.56389C14.5338 6.61548 14.4894 6.67805 14.4592 6.74762C14.429 6.8172 14.4137 6.89226 14.4143 6.96804V15.9428Z" fill="white"/>
<path d="M10.94 4.64894L1.02953 0.0520931C0.945609 0.0132417 0.85323 -0.00403097 0.76086 0.00185901C0.66849 0.007749 0.579084 0.0366131 0.500842 0.0858045C0.4226 0.134996 0.358026 0.20294 0.313042 0.283406C0.268057 0.363872 0.244102 0.454285 0.243374 0.546353L-1.45659e-05 29.232C-0.000723099 29.3248 0.0221825 29.4162 0.0665698 29.4979C0.110957 29.5795 0.175383 29.6486 0.253849 29.6988C0.332314 29.749 0.422269 29.7786 0.515338 29.7849C0.608408 29.7912 0.701565 29.7739 0.786137 29.7348L10.94 25.0242C11.0356 24.9803 11.1165 24.91 11.1731 24.8217C11.2298 24.7334 11.2598 24.6308 11.2596 24.5261V5.14784C11.2596 5.04306 11.2295 4.94046 11.1729 4.85209C11.1163 4.76371 11.0355 4.69324 10.94 4.64894ZM2.63449 16.4957C2.37534 16.4957 2.12202 16.4193 1.90655 16.2761C1.69108 16.1329 1.52314 15.9293 1.42397 15.6911C1.3248 15.453 1.29885 15.1909 1.34941 14.9381C1.39997 14.6853 1.52476 14.4531 1.708 14.2708C1.89124 14.0885 2.12471 13.9644 2.37887 13.9141C2.63303 13.8638 2.89648 13.8896 3.1359 13.9883C3.37532 14.0869 3.57995 14.254 3.72392 14.4683C3.86789 14.6826 3.94474 14.9346 3.94474 15.1924C3.94474 15.5381 3.8067 15.8696 3.56098 16.114C3.31526 16.3584 2.98199 16.4957 2.63449 16.4957Z" fill="white"/>
</g>
<defs>
<clipPath id="clip0">
<rect width="85" height="29.7863" fill="white"/>
</clipPath>
</defs>
</svg>
